<svg version="1.2" xmlns="http://www.w3.org/2000/svg" viewBox="0 0 1280 1280" width="1280" height="1280"><style>.a{opacity:1;fill:#169cdc}.b{opacity:1;fill:#fa824b}.c{opacity:.1;fill:#fb834b}.d{opacity:.1;fill:#fc834c}.e{opacity:.2;fill:#fa834b}.f{opacity:.5;fill:#fa834b}.g{opacity:1;fill:#10c3a7}.h{opacity:.8;fill:#159bdc}.i{opacity:.6;fill:#fa824b}.j{opacity:.3;fill:#fa834b}.k{opacity:.4;fill:#fa834b}.l{opacity:.1;fill:#fa964d}.m{opacity:.8;fill:#11c3a8}.n{opacity:.2;fill:#179bdc}.o{opacity:.9;fill:#fa834b}.p{opacity:.6;fill:#179bdc}.q{opacity:.5;fill:#1cbea6}.r{opacity:.2;fill:#1ebca9}</style><path class="a" d="m757.5 564.1c-2.2 0.4-7.9 0.8-12.8 0.8l-8.7 0.1c1 5.8 2.2 9.3 3.3 11.5 1 2.2 4.7 8.5 8.1 14 3.5 5.5 9.9 15.8 14.3 23 4.4 7.1 11 18 14.7 24 3.7 6 10.9 18 16 26.5 5 8.5 10.7 17.6 12.6 20.3 1.9 2.6 5.8 8.5 8.5 13.1 2.8 4.7 7.8 13.1 11.1 18.8 3.4 5.6 7.4 12.8 8.9 15.8 1.5 3 6.4 11.1 11 18 4.5 6.9 9.7 15.4 11.5 19 1.8 3.6 4.5 8.3 6 10.5 1.5 2.2 5.3 8.3 8.4 13.5 3.1 5.2 5.6 9.6 5.6 9.7 0 0.2 2.7 4.7 6 10 3.3 5.4 6.3 10.3 6.8 10.8 0.4 0.5 3.2 5.3 6.1 10.5 3 5.2 7.3 12.2 9.6 15.5 2.3 3.3 6.3 9.4 8.7 13.5 2.5 4.1 5.8 10 7.3 13 1.5 3 5.8 10 9.5 15.5 3.7 5.5 9.8 15.6 13.6 22.5 3.7 6.9 9.3 16.3 12.4 21 3.1 4.7 7.6 11.9 10 16 2.4 4.1 7.6 12.5 11.5 18.5 4 6 9.7 15.5 12.8 21 3 5.5 7.4 14.3 9.7 19.5 2.3 5.2 5.3 13.5 6.5 18.5 1.3 5 3.1 11.7 4 15 1 3.6 1.9 11.9 2.2 21 0.6 14.4 0.5 15.4-2.1 24-1.6 5-3.3 10.3-3.9 12-0.6 1.7-2.5 5.9-4.3 9.5-1.8 3.6-5.7 9.5-8.8 13.2-3.1 3.8-8.9 9.2-12.8 12.1-4 2.9-10.2 6.6-13.8 8.1-3.6 1.6-7.4 3.4-8.5 4.1-1.1 0.7-4.9 2.1-8.5 3.1-6.2 1.7-19.5 1.8-304.5 2-252.2 0.2-299.4 0-307-1.2-4.9-0.8-12.8-2.5-17.5-3.8-4.7-1.3-10.1-3.4-12-4.7-2-1.3-6.6-5.1-10.4-8.4-3.7-3.3-9.1-8.9-12-12.5-2.9-3.6-6.9-9.4-8.8-13-2-3.6-4.6-10.3-5.9-15-2.1-7.4-2.4-10.6-2.3-24.5 0-8.8 0.6-20.7 1.3-26.5 0.7-5.8 2.1-14.3 3.1-19 1-4.7 3.9-13.9 6.4-20.5 2.5-6.6 7.4-17.6 10.8-24.4 3.5-6.8 6.4-12.8 6.6-13.3 0.1-0.4-1.5-1.5-3.5-2.4-2.1-0.8-6.3-3.1-9.3-4.9-3-1.9-7.9-4.1-10.7-5-4.7-1.3-5.4-1.3-6.5 0-0.7 0.8-4.5 7.7-8.5 15.3-4 7.7-8 17.1-9.2 21.4-1.2 4.3-3 12-4.1 17-1.1 5.1-2.8 14.7-3.9 21.3-1.1 6.6-2.5 18.3-3.1 26-0.7 7.7-1 19.4-0.7 26 0.3 6.8 1.4 15.3 2.5 19.5 1.1 4.1 5.4 14.5 9.6 23 6.6 13.4 8.8 16.8 16.4 25.5 6.6 7.5 11.3 11.7 18.7 16.7 5.6 3.8 14.8 8.8 21 11.4 6.1 2.6 15.3 5.6 20.5 6.7 9.2 2 13.2 2.1 150 2.4 77.3 0.3 153.8 0.4 170 0.3 16.2 0 38.7-0.6 50-1.1 11.3-0.6 22.3-0.8 24.5-0.5 2.2 0.3 44.7 0.8 94.5 1.1 75.9 0.5 94 0.3 112-1 11.8-0.8 24-2.1 27-2.9 3-0.7 10.9-3 17.5-5.1 6.6-2 14.5-5.1 17.5-6.7 3-1.7 7.5-4.4 9.9-6.2 2.4-1.7 7.3-5.8 10.8-9.1 3.6-3.3 9.8-10.4 13.9-15.8 4.1-5.3 7.4-9.9 7.4-10.2 0-0.3 0.6-2 1.4-3.8 0.8-1.7 2.6-6.5 4-10.5 1.4-3.9 3.3-11.1 4.2-16 0.8-4.8 1.8-15.9 2.1-24.7 0.4-12.1 0.1-18.9-1.2-28-0.9-6.6-2.6-14.5-3.7-17.5-1.2-3.2-1.8-6.7-1.5-8.5 0.3-1.8-0.5-6-2-10.5-1.4-4.1-4.7-12-7.4-17.5-2.7-5.5-6.1-12.3-7.6-15-1.4-2.8-3-5.7-3.5-6.5-0.4-0.8-1.1-2.2-1.5-3-0.3-0.8-4.7-7.8-9.8-15.5-5.1-7.7-12-19-15.5-25-3.5-6-7.1-11.9-8-13-0.9-1.1-2.9-4.5-4.4-7.5-1.6-3-3.9-6.6-5.2-8-1.3-1.4-2.4-3.1-2.4-3.8 0-0.6-1-2.8-2.2-4.7-1.3-2-5.6-8.6-9.7-14.8-4-6.1-10.1-15.9-13.6-21.7-3.4-5.8-7.6-13.2-9.4-16.5-1.7-3.3-7-12.1-11.7-19.5-4.8-7.4-10.5-16.7-12.9-20.5-2.3-3.9-6-10.1-8.1-14-2.1-3.8-4.4-7.8-4.9-8.7-0.5-0.9-2.3-4.1-3.9-7-1.5-2.9-3.6-6.1-4.5-7.2-0.9-1-2.1-2.7-2.6-3.7-0.5-1.1-4.7-7.7-9.1-14.7-4.5-7-9.6-15.6-11.4-19.2-1.8-3.6-3.8-7.2-4.5-8-0.7-0.8-2.5-3.8-4-6.5-1.4-2.8-3.9-6.6-5.4-8.5-1.5-1.9-6.2-9.8-10.6-17.5-4.3-7.7-8.9-15.8-10.2-18-1.3-2.2-2.9-4.9-3.6-5.9-0.6-1.1-3.2-5.2-5.7-9-2.4-3.9-5.3-8.7-6.3-10.6-1.1-1.9-5.9-9.6-10.7-17-4.8-7.4-11.2-17.5-14.2-22.5-3-5-6.9-11.9-8.7-15.5-1.8-3.6-5.1-9.3-7.4-12.7-3.7-5.5-4.6-6.3-7.4-6.3-1.8 0-3.9-0.2-4.5-0.4-0.7-0.2-3.1 0-5.3 0.5z"/><path class="b" d="m854.5 804.1c-2.8 0.4-9 2.2-14 3.9-5 1.8-12.8 5.2-17.5 7.7-4.7 2.5-16.6 9.8-26.5 16.3-10.1 6.6-21.3 13.1-25.7 14.9-4.3 1.7-11.1 3.6-15.1 4.2-3.9 0.6-11 0.9-15.7 0.6-4.7-0.3-11.4-1.5-15-2.7-3.6-1.2-10.3-4-15-6.2-4.7-2.1-12.8-6.8-18-10.2-5.2-3.5-12-7.7-15-9.3-3-1.6-8.2-3.6-11.5-4.4-3.5-0.8-10.9-1.4-17.5-1.4-10.2 0.1-12.8 0.5-23 3.5-6.3 1.9-14.6 5.1-18.5 7-3.9 2-11.7 6.7-17.5 10.5-5.8 3.8-13.6 8.5-17.5 10.5-3.9 1.9-9.5 4.3-12.5 5.2-3 0.9-8.4 1.9-12 2.2-3.8 0.3-9.4-0.1-13.5-0.9-3.9-0.8-9.9-2.4-13.5-3.6-3.6-1.2-9.1-3.4-12.3-5-3.1-1.6-10.8-6.3-17-10.5-6.1-4.2-14.8-9.6-19.2-12-4.4-2.3-10.5-5.2-13.5-6.2-3-1.1-7.8-2.5-10.5-3-2.8-0.6-6.6-1.3-8.5-1.7-1.9-0.3-8.7-0.5-15-0.5-6.3 0-14 0.4-17 0.9-3 0.5-8 1.6-11 2.5-4.5 1.3-5.8 2.1-7.1 4.8-0.9 1.8-4.5 7.1-8.1 11.8l-6.5 8.5c8.7-4.3 14.1-6.3 17.7-7.4 3.6-1.1 9.4-2.4 13-3 3.6-0.6 11.4-1.1 17.5-1.2 6.7-0.1 13.7 0.4 18 1.3 3.9 0.9 10.4 3.2 14.5 5.1 4.1 2 14 7.9 22 13.3 8 5.3 17.6 11.1 21.5 12.9 3.9 1.8 9.7 4.2 13 5.4 3.3 1.1 7.1 2.3 8.5 2.6 1.4 0.3 3.2 0.7 4 1 0.8 0.2 2.9 0.7 4.5 1 1.6 0.4 6.8 0.9 11.5 1.2 7.4 0.5 10 0.1 20.5-2.6 8-2.1 15-4.8 21-8 5-2.6 12.8-7.5 17.5-10.8 4.7-3.4 11.4-7.7 15-9.6 3.6-2 9.9-4.5 14-5.7 4.2-1.2 12.1-2.3 18-2.7 9.6-0.5 11-0.3 16.5 1.9 3.3 1.3 10.7 5.6 16.5 9.4 5.8 3.9 14.3 8.9 19 11.1 4.7 2.2 11.6 5.2 15.5 6.7 3.9 1.4 8.1 2.9 9.5 3.2 1.4 0.3 5.4 0.9 9 1.4 3.6 0.5 9.9 1 14 1q7.5 0 19.5-2.9c6.6-1.6 14-3.8 16.5-4.9 2.5-1 10.8-6.1 18.5-11.4 7.7-5.2 19-12.4 25-15.9 6-3.6 14.1-7.8 18-9.3 3.9-1.6 9.5-3.3 12.5-3.8 3-0.5 9.3-0.8 14-0.5 4.7 0.2 9.9 0.7 11.5 1.1 1.6 0.4 3.9 1 5 1.3 1.9 0.6 1.8 0.4-0.5-3.3-1.4-2.2-4.1-6.5-6-9.6-1.9-3.2-4.4-6-5.5-6.3-1.1-0.2-4.9-0.4-8.5-0.4-3.6 0.1-8.8 0.5-11.5 1zm-26.5 95.5c-3 0.8-8.2 2.8-11.5 4.5-3.3 1.6-8.3 4.8-11.1 7.2-2.9 2.3-6.9 6.2-8.9 8.7-2.1 2.5-5.3 7.6-7.1 11.5-1.9 3.8-4.1 10.1-4.9 14-0.8 3.8-1.5 9.2-1.5 12 0 2.7 0.7 8.1 1.5 12 0.8 3.8 3.1 10.4 5.1 14.5 2.7 5.4 5.8 9.6 11.3 15.1 4.4 4.4 9.9 8.8 13.1 10.4 3 1.5 8 3.6 11 4.7 3 1.1 9.5 2.2 14.5 2.5 7.3 0.5 10.6 0.2 17.5-1.6 4.7-1.2 11.4-3.8 15-5.8 3.6-2 9.5-6.7 13.2-10.5 5-5 7.8-9 10.7-15.1 2.2-4.5 4.5-10.9 5.1-14.2 0.7-3.3 1.2-8.9 1.2-12.5 0-3.6-0.8-9.7-1.7-13.5-0.9-3.9-3.3-10.1-5.3-14-2-3.8-5.8-9.2-8.3-12-2.5-2.7-7-6.7-10-8.8-3-2-8.8-5.1-12.9-6.8-6.6-2.8-8.8-3.2-19-3.5-8.3-0.3-13 0-17 1.2zm-331.5 20.9c-3.3 0.7-8.7 2.6-12 4.2-3.3 1.7-8.1 5-10.6 7.4-2.5 2.4-5.8 6.4-7.4 8.9-1.5 2.5-3.6 7-4.7 10-1 3-2.1 8-2.4 11-0.3 3-0.1 8.2 0.5 11.5 0.6 3.3 2.5 8.8 4.1 12.2 1.7 3.5 5.1 8.6 7.8 11.4 2.6 2.8 7 6.5 9.7 8.2 2.8 1.7 7.6 3.9 10.8 4.9 3.2 1 8.9 1.8 13 1.8 4.3 0 9.8-0.7 13.7-1.9 3.6-1.1 9.4-3.9 13-6.3 4-2.7 8-6.5 10.8-10.3 2.4-3.3 5.2-8.5 6.4-11.5 1.1-3 2.3-8.9 2.6-13 0.3-4.4-0.1-9.8-0.8-13-0.7-3-2.9-8.6-4.9-12.4-2.1-4.2-5.6-8.8-8.7-11.5-2.8-2.5-7.3-5.8-10-7.3-2.7-1.5-7.6-3.4-10.9-4.2-3.3-0.9-7.8-1.6-10-1.5-2.2 0-6.7 0.6-10 1.4zm-146 41.9c-2.7 0.7-6.5 2-8.2 2.9-1.8 0.9-5.2 3.6-7.5 5.9-2.3 2.4-5 6.1-6 8.3-0.9 2.2-2.2 6.2-2.7 9-0.6 3.3-0.6 6.9 0.1 10.5 0.5 3 1.7 6.9 2.5 8.5 0.9 1.6 3.1 4.9 4.9 7.2 2.3 2.9 5.6 5.4 10.2 7.5 5.4 2.6 7.9 3.2 13.2 3.2 3.6 0 8.8-0.7 11.5-1.6 2.9-1 7.2-3.7 10.3-6.5 3.3-2.9 6.4-7 8-10.3 2.2-4.6 2.7-6.8 2.6-13.5 0-6.5-0.5-9-2.6-13.5-1.5-3-4.8-7.5-7.5-9.9-2.6-2.5-6.6-5.3-8.8-6.2-2.2-1-6.5-2-9.5-2.3-3.1-0.3-7.7 0-10.5 0.8zm323 57.2c-1.6 0.8-4.3 2.7-5.8 4.2-1.6 1.5-3.6 4-4.4 5.7-0.8 1.7-1.5 5.2-1.5 8 0 2.7 0.4 6.1 1 7.5 0.5 1.4 2.2 4 3.8 5.9 1.6 1.9 4.7 4.3 6.9 5.2 2.2 1 5.7 1.9 7.8 1.9 2 0 5.4-0.7 7.5-1.6 2-0.8 5.2-2.9 7-4.7 2-1.9 3.9-5.2 4.8-8.2 0.8-2.9 1.2-6.4 0.8-8.5-0.4-1.9-1.3-4.8-2.2-6.5-0.8-1.7-2.2-3.8-3.1-4.9-0.9-1-3.3-2.7-5.3-3.7-2.3-1.2-5.9-1.9-9-1.9-2.9 0-6.7 0.7-8.3 1.6z"/><path class="c" d="m295.1 974.8c-2.9 5.3-5.6 11.2-5.9 13-0.5 2.3-0.3 3.2 0.5 3.2 0.8 0 1.7 2.1 2.2 4.8 0.5 2.6 0.9 8.5 0.8 13.2l-0.2 8.4c21.7 11.2 32.3 16.1 37.5 18.1 5.2 2 15.6 5.9 23 8.7 7.4 2.7 23.6 7.9 36 11.5 12.4 3.6 30.4 8.3 40 10.4 9.6 2.2 22.9 4.9 29.5 6 6.6 1.1 16 2.7 21 3.5 4.9 0.9 23.6 4.5 41.5 8.1l32.5 6.5c74.1 3 76.7 3 91 1.3 12.3-1.5 18.6-1.7 35-1.1 11 0.3 28.3 1.1 38.5 1.6 10.2 0.5 25 1.4 33 2.1 12.8 1 18 0.9 44.5-1.1 21.1-1.6 34-2.1 43.5-1.7 7.4 0.4 20 1.1 28 1.7 8 0.6 20.1 2 27 3.3 9.6 1.7 16.1 2.2 28 2.1 12.8 0 17.7-0.5 28.5-2.8 7.1-1.5 18.9-4.2 26-6.1 7.1-1.9 15-3.5 17.5-3.5h4.5c6.1-20.5 7.6-27.5 7.5-30.5 0-2.7 0.5-5.6 1.2-6.2 0.7-0.7 0.8-1.3 0.2-1.3-0.5 0-0.3-0.4 0.4-0.8 1.1-0.6 1-2-0.3-7.7-0.9-3.8-2.2-8.5-2.8-10.4l-1.2-3.4c-10.1 0.8-21.8 2.5-32.5 4.2-10.7 1.8-28.3 4.8-39 6.7-10.7 1.9-23.8 3.8-29 4.4-5.2 0.5-13.3 1-18 1-4.7 0-13.5 0.7-19.5 1.5-6 0.8-18.6 1.8-28 2.1-11 0.4-20.3 0.2-26.5-0.6-5.2-0.6-15.1-1.6-22-2-6.9-0.5-29.5-0.6-50.2-0.2l-37.7 0.7c-0.9 3.5-2.3 5.9-3.9 7.6-1.5 1.8-4.4 4-6.5 5-2.3 1.2-5.8 1.9-9.5 1.9-4 0-6.9-0.7-9.7-2.3-2.3-1.3-5.3-4.3-7-6.9-2.3-3.7-3.5-4.7-5-4.3-1.1 0.3-12.4 1-25 1.5-15.4 0.7-26.1 0.7-32.5 0-5.2-0.5-14.2-1.7-20-2.5-6.3-1-23.2-2-42-2.5-20.8-0.6-34.6-1.4-40.5-2.5-5-0.8-14.2-2.9-20.5-4.6-6.3-1.7-21.9-6.4-34.5-10.5-12.6-4-28.4-9.4-35-11.9-6.6-2.5-14-4.8-16.5-5.1l-4.5-0.6c-5.4 8.3-9 12.2-11.5 14-2.5 1.9-7 4.1-10 4.9-3.6 1-7.8 1.4-12 1.1-4.3-0.3-8.3-1.4-11.8-3.2-2.8-1.4-6.9-4.3-8.9-6.3-2-2.1-4.7-6-5.9-8.8-1.3-2.7-2.6-7.5-3-10.5-0.4-3.7-0.1-7.8 1.1-12.5 0.9-3.8 1.5-7.1 1.3-7.1-0.2-0.1-3.9-2.2-8.3-4.8-4.4-2.5-10.3-5.2-13-6.1-2.8-0.8-5.3-1.5-5.6-1.5-0.3 0-2.9 4.4-5.8 9.8z"/><path class="d" d="m292.6 1018.8c-0.2 0.4-1.3 4.3-2.4 8.7-1.1 4.4-2.5 11.2-3.1 15-0.5 3.8-1.3 12-1.7 18-0.3 6.1-0.4 13.6 0 16.8 0.4 4 1 5.5 1.8 5.2 0.7-0.3 7.4 2.5 14.8 6.4 7.4 3.8 18.2 9 24 11.6 5.8 2.5 13.9 6.2 18 8 4.1 1.9 12 5 17.5 7 5.5 2 15.6 5.4 22.5 7.6 6.9 2.2 15.3 4.4 18.7 4.9 3.5 0.6 7.4 1.5 8.8 2 1.4 0.5 5.3 1.5 8.7 2 3.5 0.6 17 1.5 30 2 13.1 0.6 25.7 1.4 28 1.9 2.4 0.5 25.2 0.9 50.8 1 25.6 0.1 125.9 0.2 223 0.2 97.1 0 179.4-0.3 183-0.6 3.6-0.4 7.4-1 8.5-1.5 1.1-0.5 4.9-2.1 8.5-3.5 3.6-1.4 8.7-3.8 11.5-5.2 2.7-1.5 7.5-4.5 10.5-6.8 3-2.3 8-6.9 11-10.1 3.4-3.6 6.7-8.6 8.5-12.7 1.6-3.7 3.3-6.7 3.7-6.7 0.5 0 0.8-0.9 0.8-2 0-1.7-0.7-2-4.3-2-2.3 0-10.1 1.6-17.2 3.5-7.1 1.9-18.9 4.6-26 6.1-10.8 2.3-15.7 2.8-28.5 2.8-11.9 0.1-18.4-0.4-28-2.1-6.9-1.3-19-2.7-27-3.3-8-0.6-20.6-1.3-28-1.7-9.5-0.4-22.4 0.1-43.5 1.7-26.5 2-31.7 2.1-44.5 1.1-8-0.7-22.8-1.6-33-2.1-10.2-0.5-27.5-1.3-38.5-1.6-16.4-0.6-22.7-0.4-35 1.1-14.3 1.7-16.9 1.7-53 0.2l-38-1.5c-50.4-10.1-69.1-13.7-74-14.6-5-0.8-14.4-2.4-21-3.5-6.6-1.1-19.9-3.8-29.5-6-9.6-2.1-27.6-6.8-40-10.4-12.4-3.6-28.6-8.8-36-11.5-7.4-2.8-17.8-6.7-23-8.7-5.2-2-15.6-6.7-23-10.6-7.4-3.8-13.6-6.9-13.7-6.9-0.1 0-0.4 0.3-0.7 0.8z"/><path class="e" d="m323.2 927.3c-0.4 0.7-2.8 4.6-5.2 8.7-2.4 4.1-7.4 12.2-11.2 18l-6.8 10.5c9.7 3.1 15.9 6 20 8.4 4.1 2.5 7.6 4.8 7.8 5.3 0.1 0.4 1.7-1.1 3.5-3.4 1.8-2.4 5.3-5.8 7.8-7.6 2.4-1.9 6.9-4.1 9.9-4.9 3.4-1 7.8-1.4 11.5-1.1 3.4 0.3 8.2 1.5 11 2.8 2.8 1.4 6.8 4.2 9 6.5 2.3 2.2 5.2 6.3 6.5 9 2 4 2.5 6.5 2.5 13 0 4.4-0.3 9.1-0.7 10.5-0.7 2.4-0.5 2.5 4 3.2 2.6 0.4 10.1 2.8 16.7 5.3 6.6 2.5 22.4 7.9 35 11.9 12.6 4.1 28.2 8.8 34.5 10.5 6.3 1.7 15.6 3.8 20.5 4.6 5.9 1.1 19.7 1.9 40.5 2.5 18.8 0.5 35.7 1.5 42 2.5 5.8 0.8 14.8 2 20 2.5 6.4 0.7 17.1 0.7 32.5 0 12.6-0.5 23.9-1.3 25-1.6 1.6-0.4 1.9-1.2 1.6-4.2-0.1-2 0.2-5.7 0.9-8.2 0.8-3 2.6-5.9 5.3-8.6 2.4-2.2 5.6-4.3 7.5-4.7 1.7-0.4 3.2-1 3.2-1.4 0-0.5-1.6-1.6-3.7-2.5-2.1-1-6.5-2.4-9.8-3.2-4.3-1-15.7-1.6-41-2-30.7-0.4-37-0.8-51.5-3-9.1-1.4-20.2-3.5-24.7-4.8l-8.2-2.3c-6.7 4.9-11.1 7.5-14.1 8.9-3 1.4-8.5 3-12.2 3.5-4.8 0.8-9 0.8-14 0.1-4-0.6-10-2.4-13.3-4-3.3-1.5-8.4-5-11.4-7.7-3-2.6-6.6-7-8.2-9.8-1.7-3.1-3.8-5.4-5.6-6.2-1.5-0.6-6.5-1.6-11-2.2-6.2-0.8-12.8-2.9-26-8.2-9.8-3.8-22.5-8.4-28.3-10-5.8-1.7-13.2-4.3-16.5-5.9-3.3-1.5-8.2-4.8-11-7.3-2.7-2.5-7.9-6.2-11.5-8.2-3.6-2.1-10.1-5.8-14.5-8.3-4.4-2.5-10.1-5.4-12.7-6.4-3.6-1.3-4.9-1.4-5.6-0.5zm650.8 51.8c-3.6 1-10.8 3-16 4.3-5.2 1.4-17.1 3.6-26.5 5-9.3 1.3-21.3 2.7-26.5 3.1-5.2 0.3-10.6 1-12 1.5-1.4 0.5-3.9 2.7-5.6 4.7-1.6 2.1-6.4 6.1-10.5 8.9-4.1 2.7-10.3 6-13.9 7.3-4.7 1.7-9.5 2.5-17.5 2.8-8.4 0.4-12.5 0.1-17.5-1.2-3.6-0.9-9.4-3.2-13-5.1-3.6-1.8-8.3-4.7-10.5-6.4l-4-3.1c-13.3 3-23.1 3.5-50.5 4.1-33.3 0.7-36.1 0.9-45 3.3-5.2 1.3-11.9 3.6-14.7 5.1-2.9 1.4-5.5 3.1-5.8 3.6-0.3 0.6 0.5 1 1.8 1 1.2 0 4.1 1.2 6.5 2.5 3 1.8 4.9 3.9 6.8 7.8 1.9 3.9 2.4 6.4 2.2 10l-0.3 4.8c85-0.5 92.8-0.3 105 1.3 11.2 1.5 17.4 1.7 31 1.2 9.4-0.3 22-1.3 28-2.1 6.1-0.8 14.8-1.5 19.5-1.5 4.7 0 12.8-0.5 18-1 5.2-0.6 18.3-2.5 29-4.4 10.7-1.9 28.3-4.9 39-6.7 10.7-1.7 22.4-3.4 26-3.6 4.8-0.4 6.7-0.1 7.3 0.9 0.5 0.7 0.5 0.2 0.2-1.2-0.4-1.4-2.3-6.5-4.2-11.5-1.9-4.9-6.4-14.4-9.9-21-3.6-6.6-7.2-13-8.2-14.1l-1.7-2.2z"/><path class="f" d="m380.9 839.8c-7.2 3.6-7.5 4-12.3 12.2-2.6 4.7-6.1 10.6-7.7 13.3l-2.9 4.7c7.4 3.2 14.5 7.8 20.5 12.3 6.1 4.5 15.7 11 21.5 14.5 5.8 3.5 15.5 8.7 21.5 11.6 6.1 2.9 17.5 7.7 25.5 10.7 8 3 17.2 7 20.5 9l6 3.7c5.4-4.4 9.5-6.8 12.5-8.2 3-1.4 8.2-3.1 11.5-3.7 3.3-0.6 8.9-0.9 12.5-0.6 3.6 0.3 9 1.5 12 2.7 3 1.2 7.3 3.4 9.5 5 2.2 1.5 5.9 4.7 8.3 7.1 2.3 2.4 5.6 7.1 7.3 10.4 1.6 3.3 2.9 5.5 2.9 5 0-0.6 4.8-1 12.7-0.9 7.1 0.1 21.8 1.1 32.8 2.4 17.5 2 25.6 2.3 65 2.5 32.1 0.2 47.4-0.1 53.5-1 4.7-0.7 17.3-3 28-5 16.2-3.1 21.5-3.7 31.3-3.6l11.7 0.1c0.8-5 2.2-9 3.6-12 1.4-3 4.3-7.9 6.5-10.7 2.1-2.9 6.5-7.5 9.7-10.1l5.7-4.8c-14.7-1.9-21.1-2.4-23.7-2.4-2.7 0-13.5 1.6-24 3.6-10.6 1.9-24 4.2-29.8 5-5.8 0.8-15.5 1.9-21.5 2.4-6 0.5-18.9 1.6-28.5 2.4-9.6 0.9-26.7 2-38 2.5-15.7 0.7-23.7 0.5-34-0.5-7.4-0.8-19.3-1.8-26.5-2.3-8.4-0.6-17.4-2-25.5-4-6.9-1.7-16.8-3.8-22-4.7-5.2-0.8-12.9-2.6-17-3.9-4.1-1.3-12.9-3.8-19.5-5.5-6.6-1.8-16.3-4.8-21.5-6.7-5.2-2-18-7.7-28.5-12.7-10.4-5.1-22.1-11.1-26-13.3-3.8-2.3-11.5-7.4-16.9-11.4-7.1-5.3-11-9.1-13.8-13.1-2.1-3.2-4.2-5.8-4.6-5.8-0.5 0-4.2 1.7-8.3 3.8zm529.6 36.9c-1.1 0.2-5.6 1.3-10 2.4-4.4 1.1-11.6 3.2-16 4.6-4.4 1.4-10 3.6-12.5 4.8-2.5 1.2-6.6 4.1-9.2 6.4-4.2 3.5-4.6 4.2-3 5 0.9 0.4 3.3 1.3 5.2 1.9 1.9 0.6 6.2 2.9 9.5 5 3.3 2.1 8.2 6.1 10.8 8.8 2.7 2.7 6.1 6.8 7.5 9l2.7 4.1c8.5-2.7 16.2-5.4 22.5-7.7 6.3-2.3 14-5 17-6 3-1 5.9-1.5 6.4-1.2 0.5 0.4 0.2-0.6-0.7-2.3-0.8-1.6-3.7-6.6-6.4-11-2.8-4.4-7.4-11.7-10.4-16.3-4.9-7.4-5.7-8.2-8.4-8.1-1.6 0.1-3.9 0.3-5 0.6z"/><path class="g" d="m469 209.7c1 2.1 4.9 7 8.7 10.9 3.7 3.8 8.5 9.9 10.6 13.5 2.1 3.5 6.5 11.6 9.7 17.9 3.2 6.3 6.5 14 7.3 17 0.8 3 2.2 11.8 3.1 19.5 0.9 7.7 2 22.5 2.4 33l0.7 18.9c6.2 1.8 9.4 2.5 11 2.7 1.6 0.2 3.5 0.6 4 1 0.5 0.4 4 1 7.8 1.3l6.7 0.6c0.3-17.4 0.2-29 0.1-37-0.2-8-0.9-19.4-1.7-25.5-0.7-6-2.3-15.3-3.4-20.5-1.2-5.2-2.7-10.8-3.5-12.5-0.7-1.6-2.7-6.4-4.4-10.5-1.7-4.1-4.4-9.5-6-12-1.6-2.5-4.8-6.6-7-9.2-2.8-3.3-5.3-5.1-7.8-5.8-2.1-0.5-9.9-2-17.3-3.4-7.4-1.3-15.6-2.7-18.2-3.1l-4.7-0.6zm311 1.8c-9.1 1.9-17.4 4.1-18.5 4.8-1.1 0.8-4.4 3.6-7.4 6.3-2.9 2.7-6.5 6.9-7.9 9.4-1.5 2.5-3.9 7.9-5.4 12-1.5 4.1-3.7 10.6-4.8 14.5-1.1 3.8-2.4 11.5-3 17-0.6 5.5-1.5 14.9-2 21-0.7 7-0.6 15.8 0 24.5 0.5 7.4 1.3 42.5 1.7 78 0.4 35.5 0.8 73.7 0.9 85 0.2 11.3 0.6 32.4 0.9 47 0.4 14.6 1.2 28.3 1.7 30.5l1 4c18.1-1.3 25.7-1.6 28.6-1.6 5.1 0.1 5.2 0 4-2.2-0.8-1.5-1.3-9.3-1.4-23.2-0.2-11.6-0.6-25.1-0.9-30-0.4-5-1-9.9-1.5-11-0.5-1.1-1.1-24.7-1.4-52.5-0.2-27.8-0.9-64.2-1.5-81-0.7-20.7-0.8-38.5-0.1-55.5 0.5-13.8 1.6-28.8 2.4-33.5 0.9-4.7 2.7-12.6 4.1-17.5 1.5-5 4.6-12.6 7-17 2.4-4.4 7.3-11.2 10.8-15 3.5-3.9 7.8-9 9.6-11.5 1.7-2.5 3.2-4.9 3.1-5.3 0-0.4-0.8-0.7-1.7-0.7-1 0.1-9.2 1.6-18.3 3.5z"/><path class="h" d="m532.8 575.5c-0.2 0.3-7.4 0.7-15.9 0.9-13.3 0.2-15.5 0.5-16.4 2-0.5 0.9-4.6 7.2-9 13.9-4.4 6.7-10 14.9-12.5 18.2-2.5 3.3-10.9 16.4-18.7 29-7.8 12.7-17.6 28.2-21.7 34.5-4.1 6.3-12.9 20.5-19.5 31.5-6.6 11-15.4 25.4-19.4 32-4.1 6.6-14.1 23.3-22.3 37-8.1 13.8-18.2 30.4-22.3 37-4.1 6.6-9.9 16-12.9 21-3 5-7.7 12.6-10.5 17-2.7 4.4-6 9.6-7.2 11.5-1.2 1.9-6.7 10.7-12 19.5-5.4 8.8-13.7 22.1-18.5 29.5-4.8 7.4-12.6 19.9-17.3 27.8l-8.7 14.2c7.4 1.8 13.6 4.5 18.5 7.2 5 2.8 9.7 5.3 10.5 5.7 1.1 0.6 3.5-2.5 10.1-13.3 4.8-7.8 12.4-20.2 16.9-27.6 4.6-7.4 10.3-16.6 12.9-20.5 2.5-3.9 6.5-10.4 8.8-14.5 2.4-4.1 4.3-7.6 4.3-7.7 0-0.2 3-5.1 6.8-11.1 3.7-5.9 7.3-11.6 8-12.7 0.6-1.1 1.6-2.9 2.1-4 0.5-1.1 4.1-7.2 8.1-13.5 4-6.3 9.5-15.1 12.2-19.5 2.7-4.4 8.1-13 12-19 3.9-6 9.6-15.3 12.6-20.5 3-5.2 8.5-14 12.2-19.5 3.7-5.5 8.4-12.9 10.5-16.5 2.2-3.6 5.2-8.3 6.7-10.5 1.6-2.2 2.8-4.3 2.8-4.7 0-0.5 1.3-2.7 2.9-5 1.5-2.4 4.8-7.9 7.1-12.3 2.4-4.4 6.5-11.1 9-15 2.6-3.9 8.5-13.1 13.2-20.5 4.6-7.4 9.7-15.7 11.3-18.5 1.5-2.7 5-8.4 7.6-12.5 2.7-4.1 7.9-12.5 11.5-18.5 3.7-6 9.8-16.2 13.7-22.5 3.8-6.3 7.9-12.9 9.1-14.5 1.3-1.6 3.9-5.8 5.9-9.2l3.7-6.3c-4.4 0-5.9 0.2-6.2 0.5zm-263.4 493.5c0 5.2 0.1 7.3 0.3 4.5 0.2-2.7 0.2-7 0-9.5-0.2-2.5-0.3-0.2-0.3 5zm82.1 83.7c3.9 0.2 9.7 0.2 13 0 3.3-0.2 0.2-0.3-7-0.3-7.1 0-9.8 0.1-6 0.3zm82 0c9.4 0.2 25.1 0.2 35 0 9.9-0.1 2.3-0.2-17-0.2-19.2-0.1-27.3 0.1-18 0.2zm145 0c2.8 0.2 6.8 0.2 9 0 2.2-0.2 0-0.3-5-0.3-5 0-6.7 0.1-4 0.3zm40 0c3.9 0.2 9.7 0.2 13 0 3.3-0.2 0.2-0.3-7-0.3-7.1 0-9.8 0.1-6 0.3zm34.5 0c4.7 0.2 11.9 0.2 16 0 4.1-0.1 0.3-0.3-8.5-0.3-8.8 0-12.2 0.2-7.5 0.3zm27.5 0c2.2 0.2 6 0.2 8.5 0 2.5-0.2 0.7-0.4-4-0.4-4.7 0-6.7 0.2-4.5 0.4zm46.5 0c2.5 0.2 6.1 0.2 8 0 1.9-0.2-0.1-0.4-4.5-0.4-4.4 0-6 0.2-3.5 0.4zm72.5 0c8.8 0.2 23 0.2 31.5 0 8.5-0.1 1.3-0.3-16-0.3-17.3 0-24.3 0.2-15.5 0.3zm62.5 0c1.9 0.2 5.3 0.2 7.5 0 2.2-0.2 0.6-0.4-3.5-0.4-4.1 0-5.9 0.2-4 0.4zm-152.5 32c2.2 0.2 6 0.2 8.5 0 2.5-0.2 0.7-0.4-4-0.4-4.7 0-6.7 0.2-4.5 0.4zm-310.5 1c1.9 0.2 5.3 0.2 7.5 0 2.2-0.2 0.6-0.4-3.5-0.4-4.1 0-5.9 0.2-4 0.4zm389 0c6.9 0.2 18.6 0.2 26 0 7.4-0.1 1.8-0.3-12.5-0.3-14.3 0-20.4 0.2-13.5 0.3zm-181 1c2.5 0.2 6.1 0.2 8 0 1.9-0.2-0.1-0.4-4.5-0.4-4.4 0-6 0.2-3.5 0.4zm259.5 0c1.7 0.2 4.8 0.2 7 0 2.2-0.2 0.9-0.4-3-0.4-3.8 0-5.6 0.2-4 0.4z"/><path class="i" d="m408 830.9c-3.6 0.5-9 1.6-12 2.6-3 1-5.6 1.9-5.8 2.1-0.1 0.2 1.5 3 3.6 6.2 2.8 4 6.7 7.8 13.8 13.1 5.4 4 13 9.1 16.9 11.4 3.9 2.2 15.6 8.2 26 13.3 10.4 5 23.3 10.7 28.5 12.7 5.2 1.9 14.9 4.9 21.5 6.7 6.6 1.7 15.4 4.2 19.5 5.5 4.1 1.3 11.8 3.1 17 3.9 5.2 0.9 15.1 3 22 4.7 8.1 2 17.1 3.4 25.5 4 7.1 0.5 19.1 1.5 26.5 2.3 10.3 1 18.3 1.2 34 0.5 11.3-0.5 28.4-1.6 38-2.5 9.6-0.8 22.5-1.9 28.5-2.4 6-0.5 15.7-1.6 21.5-2.4 5.8-0.8 19.2-3.1 29.8-5 10.5-2 21.3-3.6 23.9-3.6 2.7 0 9.1 0.5 14.3 1.2l9.5 1.2c17.3-7.5 18.8-7.8 29.5-8.2 6.9-0.3 13.1 0 15.5 0.7 2.2 0.6 3.7 0.9 3.3 0.6-0.5-0.3 1.3-2.4 4-4.6 2.6-2.3 6.7-5.2 9.2-6.4 2.5-1.2 8.1-3.4 12.5-4.8 4.4-1.4 11.6-3.5 16-4.6 4.4-1.2 10.4-2.4 13.3-2.9l5.2-0.7c-9-15.5-14.2-23.9-17.3-28.7l-5.7-8.8c-6.6 1-10.7 2.1-13.5 3.2-2.7 1.1-10.4 4-17 6.3-6.6 2.4-17.6 6.4-24.5 8.8-6.9 2.5-17.5 5.6-23.5 6.8-8.2 1.7-14.1 2.3-23 2.2-6.6 0-13.4-0.3-15-0.6-1.6-0.2-7.5 0.6-13 1.9-5.5 1.4-11.6 2.5-13.5 2.5-2.1 0.1-8.4 2.5-15.5 6-6.6 3.2-14.5 6.2-17.5 6.8-3 0.6-9.5 1.5-14.5 2.1-5 0.5-12.1 1.6-16 2.4-3.9 0.9-11.7 2.1-17.5 2.7-8.1 0.9-14.8 1-29.5 0.1-10.5-0.7-25.3-1.4-33-1.7-7.7-0.3-19.2-1.4-25.5-2.5-8.5-1.6-14.1-3.3-21.3-6.6-9.3-4.2-10.1-4.4-19.2-4.4-5.2 0-12.8-0.7-16.8-1.5-3.9-0.9-10.8-2.8-15.2-4.2-4.4-1.5-10.9-4.1-14.5-5.9-3.6-1.7-8.9-4.8-11.7-6.8-2.9-2-6-3.6-6.8-3.6-0.8 0-1.5-0.5-1.5-1 0-0.5-0.7-1-1.5-1-0.8 0-1.5-0.5-1.5-1 0-0.5-0.7-1-1.5-1-0.8 0-1.5-0.5-1.5-1 0-0.5-0.7-1-1.5-1-0.8 0-1.5-0.5-1.5-1 0-0.5-0.7-1-1.5-1-0.8 0-1.5-0.5-1.5-1 0-0.5-0.4-0.8-1-0.5-0.6 0.3-1 0-1-0.5 0-0.5-0.3-0.8-0.7-0.5-0.5 0.2-1.7-0.4-2.8-1.4-1.1-0.9-3.1-2.3-4.5-3.1-1.4-0.7-5.6-2.4-9.5-3.7-5.5-1.9-9.6-2.5-19-2.8-6.6-0.2-14.9 0-18.5 0.4z"/><path class="j" d="m336.2 906.6c-2.6 4.2-6.4 10.3-8.4 13.5l-3.8 5.9c3.9 1.5 5.3 2 5.8 2 0.4 0 5 2.4 10.2 5.4 5.2 2.9 12.4 7 16 9 3.6 2.1 8.8 5.8 11.5 8.3 2.8 2.5 7.7 5.8 11 7.3 3.3 1.6 10.7 4.2 16.5 5.9 5.8 1.6 18.5 6.2 28.3 10 13.4 5.4 20 7.4 27 8.5 5 0.7 10 1.6 11 2 1.6 0.6 1.6 0.4 0-3.7-1-2.7-1.7-7.9-1.9-14.7l-0.3-10.5c-8.2-1.8-15.3-4.1-21.1-6.3-5.8-2.2-14.3-5.6-19-7.6-4.7-2.1-13-6.1-18.5-9-5.5-3-15.2-8.5-21.5-12.3-6.3-3.8-14.6-9-18.5-11.5-3.9-2.5-9.4-5.7-12.2-7.2-2.9-1.4-5.8-2.6-6.3-2.6-0.6 0-3.2 3.4-5.8 7.6zm616.3 39.4c-3.3 1-13 4-21.5 6.7-8.5 2.8-18.2 5.3-21.5 5.7-3.3 0.4-6.1 0.8-6.2 0.9-0.2 0.1-0.7 3.1-1.3 6.7-0.6 3.6-1.7 8.5-2.5 11-0.8 2.5-3.1 7.2-5 10.5-2 3.3-3.6 6.1-3.5 6.2 0 0.2 0.8-0.1 1.8-0.6 0.9-0.5 6.2-1.2 11.7-1.6 5.5-0.4 17.7-1.8 27-3.1 9.4-1.4 20.6-3.4 25-4.5 4.4-1.1 11.2-2.9 15-4 3.9-1.2 7.6-2.3 8.3-2.5 0.8-0.3-0.8-3.3-4.4-8.7-3.1-4.5-7.7-11.9-10.3-16.5-2.5-4.5-5-8.2-5.6-8.1-0.5 0-3.7 0.9-7 1.9zm-192 28c-10.4 0.9-23 2.2-28 2.8-4.9 0.6-14.6 1.6-21.5 2.2-6.9 0.6-17.6 1.8-23.7 2.6-6.2 0.7-17 1.4-24 1.4-7.1-0.1-15.9-0.5-19.8-1-3.8-0.5-18.9-1.4-33.5-2-16-0.6-32.2-1.9-41-3.2-8-1.1-15.3-1.8-16.2-1.4-1 0.3-1.8 1.4-1.8 2.3 0 1-1.4 4.6-3 8-1.7 3.5-4.9 8.4-7.2 10.9-2.4 2.5-3.6 4.3-2.8 3.9 0.8-0.3 5 0.3 9.3 1.4 4.2 1.2 15.2 3.3 24.5 4.7 14.7 2.2 20.8 2.6 51.7 3 25.3 0.4 36.7 1 41 2 3.3 0.8 7.7 2.2 9.8 3.2 2.1 0.9 3.7 2 3.7 2.4 0 0.5 1.3 0.7 2.8 0.5 1.6-0.1 3.5-0.7 4.3-1.3 0.8-0.6 3.4-2.2 5.9-3.4 2.5-1.3 8.8-3.4 14-4.7 8.9-2.4 11.8-2.6 45-3.3 27.1-0.5 37.2-1.1 42.8-2.4 3.9-0.9 7.8-1.3 8.5-0.9 0.6 0.4-0.5-1.2-2.5-3.5-2.1-2.3-5.2-6.3-6.8-9-1.7-2.6-4-7.2-5.1-10.2-1.1-3-2.6-5.8-3.2-6.2-0.7-0.4-1.9-0.7-2.7-0.7-0.8 0.1-10 0.9-20.5 1.9z"/><path class="k" d="m355.6 873.8c-1.3 2-4.7 8-7.6 13.2-2.8 5.2-5.6 10-6.1 10.5-0.5 0.6 1.5 2.1 5.4 3.8 3.4 1.6 9.3 4.9 13.2 7.5 3.8 2.5 12.2 7.7 18.5 11.5 6.3 3.8 16 9.3 21.5 12.3 5.5 2.9 13.8 6.9 18.5 9 4.7 2 13.2 5.4 19 7.6 5.8 2.2 13.1 4.5 16.2 5.2l5.8 1.1c1.8-5.4 3.3-9.1 4.6-11.7 1.3-2.7 3.9-6.4 5.6-8.3 3.2-3.5 3.3-3.6 1.3-5-1.1-0.8-4-2.5-6.5-3.9-2.5-1.4-11.3-5-19.5-8.1-8.3-3.1-19.5-7.8-25-10.5-5.5-2.7-14.7-7.7-20.5-11.2-5.8-3.5-15.5-10-21.5-14.4-6.1-4.5-11.9-8.6-13-9.2-1.1-0.6-3.2-1.5-4.8-2.1-2.5-1-2.9-0.8-5.1 2.7zm579.3 41.3c-3 0.9-10.6 3.6-16.9 5.9-6.3 2.3-13.9 4.9-16.8 5.8-2.9 1-5.2 2-5.2 2.5 0 0.4 0.6 1.9 1.4 3.5 0.8 1.5 2.1 5.4 2.9 8.7 0.8 3.3 1.8 8.6 2.1 11.8l0.6 5.7c9.7-1 19.5-3.5 28-6.3 8.5-2.7 18.4-5.8 22-6.8 3.6-1.1 6.6-2.1 6.7-2.2 0.1-0.1-2.2-4-5.3-8.7-3-4.7-6.8-11-8.3-14-1.6-3-3.5-6-4.3-6.6-1.1-0.8-2.9-0.6-6.9 0.7zm-173.9 29c-3 0.5-15.4 2.8-27.5 5.1l-22 4.2c-90.9-0.1-96.8-0.3-116-2.4-11.5-1.3-26.5-2.4-33.3-2.4l-12.3-0.1c1.2 5.4 1.6 11.5 1.6 17.1 0 8.5 0.2 10 1.5 9.7 0.8-0.3 8 0.5 16 1.6 8.3 1.2 25.8 2.5 41 3.1 14.6 0.6 29.7 1.5 33.5 2 3.9 0.5 12.7 0.9 19.8 1 7 0 17.8-0.7 24-1.5 6.1-0.8 19.1-2.1 28.7-3 9.6-0.8 18.6-1.7 20-2 1.4-0.3 12.4-1.4 24.5-2.4 12.1-1 22.6-1.7 23.3-1.5 0.9 0.3 1-0.4 0.5-2.8-0.5-1.8-0.8-8.4-0.8-14.5v-11.3c-7.7 0-11.6-0.2-13.5-0.4-1.9-0.3-6 0-9 0.5z"/><path class="i" d="m853.5 821.5c-3.3 0.7-9.8 3.1-14.5 5.3-4.7 2.3-12.1 6.2-16.5 8.9-4.4 2.6-13 8.3-19 12.6-6 4.3-14.5 9.5-18.7 11.5-4.3 2-7.8 3.9-7.8 4.2 0 0.3 2.4 0.7 5.2 1 2.9 0.3 9.6 0.5 14.8 0.4 5.5-0.1 14.2-1.1 20.5-2.3 6-1.3 16.6-4.3 23.5-6.8 6.9-2.4 17.9-6.4 24.5-8.8 6.6-2.3 14.2-5.2 17-6.3 2.7-1.1 6.9-2.2 9.2-2.6l4.3-0.6-7.9-14.5c-10.5-2.6-17-3.3-21.1-3.3-4.1 0-10.2 0.5-13.5 1.3zm-213.5 13.2c-1.9 0.2-6.4 1.1-10 2-3.6 0.8-7.2 1.9-8 2.3-0.8 0.4-3.1 1.5-5 2.4-1.9 0.9-5.6 2.9-8.1 4.4-2.5 1.5-8.1 5.2-12.5 8.3-4.3 3-9.9 6.7-12.4 8.2-2.5 1.4-7.6 3.8-11.5 5.2-3.9 1.5-10.1 3.4-13.9 4.3l-6.9 1.7c18.2 8.2 23.7 9.9 32.3 11.4 6.3 1.2 17.8 2.3 25.5 2.6 7.7 0.3 22.5 1 33 1.7 14.7 0.9 21.4 0.8 29.5-0.1 5.8-0.6 13.6-1.8 17.5-2.6 3.9-0.8 10.8-2 15.5-2.5 4.7-0.5 11.4-1.5 15-2.2 4.2-0.7 10.6-3.2 18-7l11.5-5.8c-14.2 0-20.2-0.8-26.7-2.5-5.4-1.4-10.6-2.9-11.5-3.4-1-0.5-6.1-3-11.3-5.4-5.2-2.4-14.3-7.6-20.2-11.6-6-3.9-13.4-8.1-16.5-9.4-4-1.6-8-2.3-12.8-2.4-3.9 0-8.6 0.1-10.5 0.4zm-174.8 8.2c-0.1 0.6 0.5 1.1 1.3 1.1 0.8 0 1.5 0.5 1.5 1 0 0.5 0.7 1 1.5 1 0.8 0 1.5 0.5 1.5 1 0 0.5 0.7 1 1.5 1 0.8 0 1.5 0.5 1.5 1 0 0.5 0.8 1 1.8 1q1.7 0-1.8-2.3c-1.9-1.3-4.6-3.2-6-4.2-1.6-1.1-2.7-1.3-2.8-0.6z"/><path class="l" d="m286.6 991.5c-1.1 2.8-3 7.9-4.4 11.5-1.4 3.6-3.8 11-5.4 16.5-1.5 5.5-3.2 14-3.8 19-0.5 5-1.2 16.8-1.5 26.3l-0.5 17.2c4.3 0 7.5 0.3 10 0.6l4.5 0.6c0.2-26 0.9-36.6 1.9-42.2 0.8-5.2 2.4-12.7 3.5-16.5 1.2-4.4 1.9-10.2 1.9-15.5 0.1-4.7-0.4-10.6-0.9-13.2-0.5-2.7-1.4-4.8-1.9-4.8-0.6 0-1.1-1-1.3-2.2-0.2-1.7-0.7-1-2.1 2.7zm720.8 56.5c0.3 0.5 0.1 1.2-0.4 1.5-0.5 0.3-1 3.1-1 6.3q0 5.7-4 18.7c-2.2 7.2-4 13.6-4 14.3 0 0.6-0.3 1.2-0.7 1.2-0.5 0-2.1 3-3.8 6.7-1.8 4.1-5.1 9.1-8.5 12.7-3 3.2-8 7.8-11 10.1-3 2.3-7.7 5.3-10.5 6.8-2.7 1.4-7.9 3.8-11.5 5.2-3.6 1.4-7.4 3-8.5 3.5-1.1 0.5-4.9 1.1-8.5 1.5-3.6 0.3-85.9 0.6-183 0.6-97.1 0-197.1-0.2-222.2-0.3-25.1-0.2-45.6-0.2-45.5-0.1 0.1 0.1 4.9 1.6 10.7 3.3 5.8 1.7 12.3 4.3 14.5 5.8 2.2 1.5 4.9 3.1 6 3.6 1.1 0.5 22.9 1 49.7 1 31.3 0.1 47.8-0.2 47.8-0.9-0.1-0.5 1.2-1.6 2.7-2.3 2.1-1.1 3.7-1.1 6.3-0.3 1.9 0.5 4.2 1.7 5 2.6 1.4 1.5 7.3 1.6 63 1.5 33.8-0.1 97.5-0.1 141.5-0.1 44 0 87.2-0.1 96-0.3 10.6-0.3 17.8-0.9 21.5-2 3-0.8 9.8-3.5 15-5.8 5.2-2.3 12.4-6.3 16-8.8 3.6-2.6 9-7.6 12-11.2 3-3.6 6.6-8.8 7.9-11.5 1.3-2.6 2.9-5.9 3.6-7.3 0.7-1.4 2.7-7.5 4.4-13.5 1.7-6 3.4-14.4 3.7-18.5 0.4-4.1 0.2-11.4-0.3-16.2-0.9-7.3-1.4-8.8-2.8-8.8-0.9 0-1.4 0.5-1.1 1z"/><path class="m" d="m763.3 300c0 4.1 0.2 5.9 0.4 4 0.2-1.9 0.2-5.3 0-7.5-0.2-2.2-0.4-0.6-0.4 3.5zm-253.6 48c-0.6 23.5-0.4 55.4 0.5 94.5 0.7 32.4 1.1 68.2 1 79.5-0.1 11.3-0.7 24.1-1.3 28.5-0.6 4.4-1.6 10-2.3 12.5-0.7 2.5-2.3 6.4-3.5 8.8-1.1 2.3-2.1 4.3-2.1 4.4 0 0.2 5.7 0.2 12.8 0.1 7-0.1 15.3-0.4 18.5-0.7 5.5-0.6 5.8-0.7 7.8-4.9 2.2-4.2 2.2-4.9 2-59.7-0.1-30.5-0.5-67.9-1-83-0.5-15.1-0.8-29.5-0.8-32 0.1-2.5 0-14.7-0.1-27.2l-0.2-22.8c-10.5-0.9-14-1.5-14.5-1.9-0.5-0.4-2.3-0.8-4-1-1.6-0.2-4.8-0.9-7-1.5l-4-1.2c-0.9-25.3-1.2-21.2-1.8 7.6zm253.6 30c0 4.1 0.2 5.9 0.4 4 0.2-1.9 0.2-5.3 0-7.5-0.2-2.2-0.4-0.6-0.4 3.5zm-30.9 50.5c0 6.6 0.1 9.1 0.3 5.5 0.2-3.6 0.2-9 0-12-0.2-3-0.3-0.1-0.3 6.5zm1 49.5c0 8 0.2 11.4 0.3 7.5 0.2-3.9 0.2-10.4 0-14.5-0.1-4.1-0.3-1-0.3 7zm32 4.5c0 8.3 0.2 11.4 0.3 7 0.2-4.4 0.2-11.1 0-15-0.1-3.9-0.3-0.2-0.3 8z"/><path class="n" d="m1045.3 1066.5c0 10 0.1 11.6 0.7 7 0.4-3.3 0.4-9.2 0-13-0.6-5.9-0.7-4.9-0.7 6zm-774.9 5c0 6.6 0.1 9.1 0.3 5.5 0.2-3.6 0.2-9 0-12-0.2-3-0.3-0.1-0.3 6.5zm-34.8-4.5c-0.5 3.6-0.5 7.8 0 9.5 0.8 2.8 0.9 2.6 1.2-2 0.2-2.8 0.2-7 0-9.5-0.3-4.4-0.4-4.4-1.2 2zm8.5 46.5c0 0.5 1.8 4.4 3.9 8.5 2.1 4.1 3.9 7 3.9 6.5 0-0.5-1.8-4.4-3.9-8.5-2.1-4.1-3.9-7-3.9-6.5zm275.9 37.6c-2.5 0.3 3.2 0.7 13 0.8 9.6 0.1 17.3 0 17-0.2-0.3-0.3-6.1-0.6-13-0.9-6.9-0.2-14.5-0.1-17 0.3zm63-0.1l-12.5 0.6c20.2 0.1 27.4-0.2 29-0.6l3-0.8c-5.4 0.2-12.6 0.5-19.5 0.8zm-222 0.7c3 0.2 8.2 0.2 11.5 0 3.3-0.2 0.8-0.3-5.5-0.3-6.3 0-9 0.1-6 0.3zm53 0c13.5 0.2 35.8 0.2 49.5 0 13.8-0.1 2.7-0.2-24.5-0.2-27.2 0-38.5 0.1-25 0.2zm224.5 0c18.7 0.2 49.5 0.2 68.5 0 19-0.1 3.7-0.2-34-0.2-37.7 0-53.2 0.1-34.5 0.2zm119.5 0c3.6 0.2 9 0.2 12 0 3-0.2 0.1-0.3-6.5-0.3-6.6 0-9.1 0.1-5.5 0.3zm50.5 0c14.3 0.2 37.9 0.2 52.5 0 14.6-0.1 2.9-0.2-26-0.2-28.9 0-40.8 0.1-26.5 0.2zm94 0c5.5 0.2 14 0.2 19 0 5-0.1 0.5-0.3-10-0.3-10.5 0-14.5 0.2-9 0.3zm-376 34c3.9 0.2 9.7 0.2 13 0 3.3-0.2 0.2-0.3-7-0.3-7.1 0-9.8 0.1-6 0.3zm182 0c6 0.2 15.5 0.2 21 0 5.5-0.1 0.5-0.3-11-0.3-11.5 0-16 0.2-10 0.3zm-361.5 1c5.2 0.2 14 0.2 19.5 0 5.5-0.1 1.2-0.3-9.5-0.3-10.7 0-15.2 0.2-10 0.3zm47.5 0c5 0.2 12.6 0.2 17 0 4.4-0.1 0.4-0.3-9-0.3-9.3 0-12.9 0.2-8 0.3zm51 0c7.2 0.2 19.1 0.2 26.5 0 7.4-0.1 1.6-0.3-13-0.3-14.6 0-20.6 0.2-13.5 0.3zm49.5 0c3 0.2 7.5 0.2 10 0 2.5-0.2 0-0.3-5.5-0.3-5.5 0-7.5 0.1-4.5 0.3zm61.5 0c4.4 0.2 11.4 0.2 15.5 0 4.1-0.1 0.5-0.3-8-0.3-8.5 0-11.9 0.2-7.5 0.3zm26.6-0.5c0.2 0.4 8.8 1.1 19.2 1.7 11.7 0.7 19.5 0.8 21 0.2 1.5-0.7-1.7-1-10.8-1-7.1-0.1-16.8-0.4-21.4-0.8-4.7-0.3-8.3-0.4-8-0.1zm50.2 0.6c-0.6 0.4 9.1 0.6 21.5 0.4 12.5-0.1 26.3-0.3 30.7-0.5 4.4-0.2-5.3-0.4-21.5-0.5-16.2-0.1-30 0.2-30.7 0.6zm144.7-0.1c9.6 0.2 25.6 0.2 35.5 0 9.9-0.1 2-0.2-17.5-0.2-19.5 0-27.6 0.1-18 0.2zm76 0.4c6.9 0.3 19.7 0.9 28.5 1.3 10.9 0.5 19.4 0.3 26.6-0.6 10-1.2 8.3-1.3-28.5-1.3-22.2 0-33.7 0.3-26.6 0.6z"/><path class="o" d="m389.2 818.3c-0.6 0.6-3.8 5.5-7.2 10.7-3.5 5.2-6.3 10-6.4 10.6 0 0.6-0.8 1.9-1.6 2.9-1 1.1 0.2 0.7 3.2-1.1 2.6-1.6 4.5-3 4.2-3.1-0.2-0.2-1.3 0.2-2.4 0.7-1.1 0.6-2.2 0.9-2.5 0.8-0.3-0.2 2-3.7 5.1-7.8 3.1-4.1 6.3-8.8 7.2-10.5 0.8-1.6 2-3.3 2.6-3.7 0.8-0.6 0.8-0.8 0-0.8-0.7 0-1.6 0.6-2.2 1.3z"/><path class="p" d="m1044.4 1067c0 8 0.2 11.3 0.3 7.5 0.2-3.8 0.2-10.4 0-14.5-0.1-4.1-0.3-1-0.3 7zm-32 2c0 5.8 0.1 8 0.3 5 0.2-3 0.2-7.8 0-10.5-0.2-2.8-0.3-0.3-0.3 5.5zm-775 3.5c0 7.2 0.1 9.8 0.3 6 0.2-3.8 0.2-9.7 0-13-0.2-3.3-0.3-0.2-0.3 7zm257.6 79.2c4.1 0.2 10.6 0.2 14.5 0 3.8-0.1 0.5-0.3-7.5-0.3-8 0-11.1 0.2-7 0.3zm60 0c3 0.2 7.5 0.2 10 0 2.5-0.2 0-0.3-5.5-0.3-5.5 0-7.5 0.1-4.5 0.3zm-180 1c3 0.2 8.2 0.2 11.5 0 3.3-0.2 0.8-0.3-5.5-0.3-6.3 0-9 0.1-6 0.3zm504.5 0c2.7 0.2 7.5 0.2 10.5 0 3-0.2 0.8-0.3-5-0.3-5.8 0-8.3 0.1-5.5 0.3zm-500.5 33c3 0.2 8.2 0.2 11.5 0 3.3-0.2 0.8-0.3-5.5-0.3-6.3 0-9 0.1-6 0.3zm130.5 0c1.6 0.2 4.8 0.2 7 0 2.2-0.2 0.8-0.4-3-0.4-3.9 0-5.7 0.2-4 0.4zm232 0c1.6 0.2 4.8 0.2 7 0 2.2-0.2 0.8-0.4-3-0.4-3.9 0-5.7 0.2-4 0.4zm144 1c4.9 0.2 12.6 0.2 17 0 4.4-0.1 0.3-0.3-9-0.3-9.4 0-13 0.2-8 0.3z"/><path class="q" d="m541.4 303.5c0 6.1 0.1 8.3 0.3 5 0.2-3.3 0.2-8.3 0-11-0.2-2.8-0.3-0.1-0.3 6zm-32.2 21c-0.1 8.8-0.4 20.5-0.7 26l-0.4 10c1.5-13.9 1.8-25.6 1.6-35l-0.3-17zm32.3 34.5c0 17.9 0.1 25.1 0.3 16 0.1-9.1 0.1-23.7 0-32.5-0.2-8.8-0.3-1.4-0.3 16.5zm190 6.5c0 17.1 0.1 24.3 0.3 16 0.1-8.3 0.1-22.2 0-31-0.2-8.8-0.3-2.1-0.3 15zm32.9 27.5c0 4.1 0.1 5.9 0.4 4 0.2-1.9 0.2-5.3 0-7.5-0.3-2.2-0.4-0.6-0.4 3.5zm-223 14c0 4.7 0.2 6.5 0.4 4 0.2-2.5 0.2-6.3 0-8.5-0.2-2.2-0.4-0.2-0.4 4.5zm223.4 3.8c-0.5 5.3-0.6 9.9-0.3 10.2 0.2 0.3 0.8-3.9 1.2-9.3 0.5-5.4 0.6-10 0.3-10.2-0.3-0.2-0.8 4-1.2 9.3zm-255.3 33.7c0 17.6 0.1 24.6 0.3 15.5 0.1-9.1 0.1-23.5 0-32-0.2-8.5-0.3-1.1-0.3 16.5zm255.9-6.5c0 9.1 0.2 12.7 0.4 8 0.2-4.7 0.2-12.1 0-16.5-0.2-4.4-0.4-0.6-0.4 8.5zm-221.9 39c0 14.6 0.1 20.4 0.3 13 0.1-7.4 0.1-19.4 0-26.5-0.2-7.1-0.3-1.1-0.3 13.5zm223.5 27.3l0.5 7.2c0.4-10.1 0.2-13.3-0.2-13.7-0.4-0.4-0.6 2.5-0.3 6.5zm-255.6 8.2c0 6 0.2 8.3 0.4 5 0.2-3.3 0.2-8.3 0-11-0.2-2.8-0.4-0.1-0.4 6zm32 0c0 5 0.2 7.2 0.4 5 0.2-2.2 0.2-6.3 0-9-0.2-2.8-0.4-0.9-0.4 4zm191 27.5c0 10.2 0.2 14.2 0.4 9 0.2-5.2 0.2-13.5 0-18.5-0.2-5-0.4-0.7-0.4 9.5zm34-7c0 5.2 0.2 7.2 0.4 4.5 0.2-2.8 0.2-7 0-9.5-0.2-2.5-0.4-0.2-0.4 5zm-258 5c0 4.7 0.2 6.5 0.4 4 0.2-2.5 0.2-6.3 0-8.5-0.2-2.2-0.4-0.2-0.4 4.5z"/><path class="r" d="m763.3 314c0 4.1 0.2 5.9 0.4 4 0.2-1.9 0.2-5.3 0-7.5-0.2-2.2-0.4-0.6-0.4 3.5zm-254.9 13.5c0 11 0.2 15.7 0.3 10.5 0.2-5.2 0.2-14.2 0-20-0.1-5.8-0.3-1.5-0.3 9.5zm33.9-7c0 3.9 0.2 5.2 0.4 3 0.2-2.2 0.2-5.4 0-7-0.2-1.6-0.4 0.1-0.4 4zm220.1 13.5c0 6.9 0.1 9.6 0.3 6 0.2-3.6 0.2-9.2 0-12.5-0.2-3.3-0.3-0.4-0.3 6.5zm-32.1-1c0 4.1 0.2 5.9 0.4 4 0.2-1.9 0.2-5.3 0-7.5-0.2-2.2-0.4-0.6-0.4 3.5zm33.1 25.5c0 6.6 0.1 9.1 0.3 5.5 0.2-3.6 0.2-9 0-12-0.2-3-0.3-0.1-0.3 6.5zm-255 34c0 18.1 0.2 25.8 0.3 17 0.2-8.8 0.2-23.6 0-33-0.1-9.4-0.3-2.1-0.3 16zm34-8.5c0 9.6 0.2 13.4 0.3 8.5 0.2-4.9 0.2-12.8 0-17.5-0.1-4.7-0.3-0.6-0.3 9zm188 12c0 5.8 0.1 8 0.3 5 0.2-3 0.2-7.8 0-10.5-0.2-2.8-0.3-0.3-0.3 5.5zm1 38.5c0 11.6 0.2 16.1 0.3 10 0.2-6.1 0.2-15.5 0-21-0.1-5.5-0.3-0.6-0.3 11zm-223 25c0 6.1 0.1 8.3 0.3 5 0.2-3.3 0.2-8.3 0-11-0.2-2.8-0.3-0.1-0.3 6zm224 27.5c0 13.5 0.2 18.9 0.3 12 0.2-6.9 0.2-17.9 0-24.5-0.1-6.6-0.3-1-0.3 12.5zm34-5c0 8.5 0.2 11.9 0.3 7.5 0.2-4.4 0.2-11.4 0-15.5-0.1-4.1-0.3-0.5-0.3 8zm-256 29.5c0 10.5 0.2 14.5 0.3 9 0.2-5.5 0.2-14.1 0-19-0.1-4.9-0.3-0.4-0.3 10zm33 20c0 6 0.1 8.3 0.3 5 0.2-3.3 0.2-8.3 0-11-0.2-2.8-0.3 0-0.3 6zm-272 531c0 6.6 0.1 9.1 0.3 5.5 0.2-3.6 0.2-9 0-12-0.2-3-0.3-0.1-0.3 6.5z"/><path fill-rule="evenodd" class="b" d="m673 200c4.8 0 5 0.1 5 2.8 0 2.5 0.4 2.8 5.7 4 3.2 0.7 8 2.5 10.8 4 2.7 1.5 6.4 4.6 8.2 7 1.8 2.3 3.6 5.4 3.9 7 0.3 1.5 0.4 2.8 0.2 3-0.2 0.1-4.1 0.7-8.8 1.3-7.8 1-8.6 0.9-9.5-0.7-0.5-1-2.5-3.3-4.2-5.1-1.8-1.8-4-3.3-4.8-3.3-1.3 0-1.5 2-1 26.4l9.1 3.1c5.1 1.6 11.1 4.3 13.5 6 2.7 1.9 5.2 4.9 6.8 8 1.4 2.8 2.7 7 2.9 9.5 0.3 2.5-0.3 7-1.1 10-0.9 3-3.1 7.3-5 9.5-1.8 2.2-5.3 5.2-7.8 6.7-2.4 1.4-7.5 3.5-18.4 6.3l-0.5 12.5-9.5-0.5-1-11.7-6.5-1.7c-3.6-0.9-8.5-2.8-11-4.2-2.5-1.4-6-4.4-7.8-6.5-1.8-2.1-4.1-6.4-5.3-9.4-1.1-3-1.6-5.8-1.2-6.1 0.4-0.4 4.8-1 18.8-2.1l1.2 3.4c0.6 1.8 3 5 5.2 7.1 2.3 2 4.8 3.7 5.6 3.7 1.3 0 1.5-2.1 1-28.3l-6-2c-3.3-1.1-8.4-3.5-11.3-5.4-2.8-1.8-6.2-5-7.5-7-1.3-2.1-2.9-5.4-3.5-7.3-0.7-1.9-1.2-5.5-1.2-8 0-2.6 1-6.6 2.4-9.5 1.3-2.7 3.6-6.2 5.2-7.7 1.6-1.5 5.4-3.8 8.4-5.2 3-1.3 7.4-2.7 9.7-3 4-0.6 4.3-0.8 4.3-3.6 0-2.9 0.1-3 5-3zm-15.1 31.4c0.1 2.7 0.9 4.4 3.6 7.1 1.9 1.9 4 3.5 4.5 3.5 0.6 0 1-4.2 1-10.5 0-5.8-0.4-10.5-0.9-10.5-0.5 0-2.6 1.5-4.6 3.4-2.9 2.7-3.6 4-3.6 7zm22.1 58.1c0.5 0.3 2.4-0.2 4-1 1.6-0.8 3.9-2.7 5-4.2 1.3-1.8 2.1-4.3 2-6.8 0-2.2-0.6-4.9-1.3-6-0.8-1.1-3-2.8-5-3.7-2.1-1-4.2-1.8-4.7-1.8-0.6 0-1 4.5-1 11.5 0 6.7 0.4 11.7 1 12zm-81.9 103.5h12.9v7.5l7.7 1.7c5.4 1.2 9.6 2.9 13.5 5.5 3.2 2.1 7.1 5.6 8.7 7.8 1.6 2.2 3.7 5.9 4.5 8.3 1.3 3.3 1.3 4.3 0.4 4.6-0.7 0.3-4.2 0.7-7.8 1-3.6 0.4-8.3 0.9-10.5 1.2-3.9 0.5-4.1 0.4-6.3-3.8-1.2-2.4-3.7-5.3-5.5-6.5-1.7-1.3-3.5-2.3-3.9-2.3-0.5 0-0.8 7.4-0.8 33l4.3 1c2.3 0.6 6.9 2 10.2 3.2 3.3 1.1 7.8 3.1 10 4.3 2.2 1.3 5.7 4.2 7.8 6.4 2 2.3 4.4 5.8 5.4 7.9 1.1 2.4 1.7 6.6 1.7 12.2 0 7.1-0.4 9.4-2.5 14-1.4 3-4.6 7.5-7.1 10-2.5 2.5-7.1 5.7-10.2 7.3-3.1 1.5-8.7 3.4-19.6 5.7v15h-13l-0.5-14.3-6.5-1.4c-3.6-0.7-9.2-2.6-12.5-4.2-3.3-1.7-8-4.9-10.4-7.3-2.4-2.4-5.6-7-7.1-10.3-1.6-3.3-3.1-7.2-3.4-8.7-0.5-2.3-0.2-2.9 1.7-3.2 1.2-0.3 6.7-0.8 22.2-1.8l2 4.8c1.2 2.9 3.8 6.3 6.5 8.6 2.5 2.1 5.3 3.9 6.3 3.8 1.6 0 1.7-1.4 1.2-34.4l-5.5-1.6c-3-0.9-8.2-3-11.4-4.6-3.3-1.6-8.1-4.9-10.6-7.4-3-3-5.4-6.6-6.9-10.5-1.9-4.9-2.2-7.4-1.9-13.5 0.3-5 1.2-8.9 2.6-11.7 1.2-2.4 4.1-6.1 6.5-8.4 2.3-2.2 6.5-5.1 9.2-6.5 2.8-1.3 7.9-3 18-5zm-11.6 34.5c-0.8 1.9-1.5 4.5-1.5 5.8-0.1 1.2 1 3.7 2.2 5.6 1.3 1.8 3.6 4.1 5.3 5.2l3 1.8c1.4-20.5 1.4-25.7 0.8-26.1-0.5-0.4-2.6 0.4-4.6 1.7-2 1.4-4.4 4.1-5.2 6zm25.5 77.5c5.8-2.4 8.5-4.1 9.8-5.3 1.3-1.2 3-3.4 3.8-4.9 0.8-1.5 1.4-4.2 1.4-6 0-1.8-0.9-4.7-2-6.5-1.1-1.8-3.3-3.9-4.8-4.7-1.5-0.8-4-1.9-5.5-2.5l-2.8-1zm76.1 86h12.9v7.5l7.8 1.7c5.3 1.2 9.5 2.9 13.4 5.5 3.2 2.1 7.1 5.6 8.7 7.8 1.6 2.2 3.7 5.9 4.5 8.2 1.3 3.3 1.3 4.4 0.4 4.7-0.7 0.2-4.2 0.7-7.8 1-3.6 0.4-8.3 0.9-10.5 1.2-3.9 0.5-4.1 0.4-6.2-3.8-1.3-2.4-3.8-5.3-5.5-6.6-1.8-1.2-3.6-2.2-4-2.2-0.4 0-0.8 7.4-0.8 33l4.3 1c2.3 0.6 6.9 2 10.2 3.1 3.3 1.2 7.8 3.2 10 4.4 2.2 1.3 5.7 4.1 7.8 6.4 2 2.2 4.5 5.8 5.4 7.8 1.1 2.5 1.7 6.6 1.7 12.3 0.1 7.1-0.3 9.4-2.5 14-1.4 3-4.6 7.5-7.1 10-2.5 2.4-7.1 5.7-10.2 7.2-3.1 1.5-8.7 3.4-19.6 5.8v15h-13l-0.5-14.4-6.5-1.3c-3.6-0.7-9.2-2.6-12.5-4.3-3.3-1.6-8-4.9-10.4-7.2-2.4-2.4-5.6-7-7.1-10.3-1.5-3.3-3.1-7.3-3.4-8.8-0.5-2.3-0.2-2.8 1.7-3.2 1.2-0.2 6.7-0.7 22.2-1.7l2 4.8c1.2 2.8 3.8 6.3 6.5 8.6 2.5 2.1 5.3 3.8 6.3 3.8 1.6 0 1.7-1.4 1.2-34.4l-5.5-1.7c-3-0.9-8.2-2.9-11.4-4.5-3.3-1.6-8-5-10.6-7.4-3-3-5.4-6.6-6.9-10.5-1.9-4.9-2.2-7.4-1.8-13.5 0.2-5 1.1-8.9 2.5-11.8 1.2-2.3 4.1-6.1 6.5-8.3 2.3-2.3 6.5-5.2 9.2-6.5 2.8-1.3 7.9-3 18-5zm-11.6 34.5c-0.8 1.9-1.5 4.5-1.5 5.7 0 1.3 1 3.8 2.2 5.6 1.3 1.9 3.6 4.2 5.3 5.2l3 1.9c1.4-20.5 1.4-25.7 0.8-26.1-0.5-0.5-2.6 0.3-4.6 1.7-2 1.4-4.4 4.1-5.2 6zm25.5 77.5c5.8-2.4 8.6-4.1 9.8-5.3 1.3-1.2 3-3.4 3.8-5 0.8-1.5 1.4-4.2 1.4-6 0-1.7-0.9-4.7-2-6.5-1.1-1.7-3.2-3.8-4.8-4.6-1.5-0.8-4-1.9-5.5-2.5l-2.8-1.1zm-160.4-4c4.3 0 4.4 0.2 4.4 3 0 2.8 0.4 3.1 4.3 3.7 2.3 0.3 6.5 1.6 9.2 2.9 2.8 1.2 6.3 3.8 7.9 5.6 1.6 1.8 3.6 4.8 4.5 6.6 1.1 2.1 1.3 3.5 0.6 4.1-0.5 0.5-4.5 1.2-16.5 2.1l-1.5-3c-0.8-1.6-2.5-3.6-3.7-4.5-1.3-0.8-2.8-1.5-3.5-1.5-1 0-1.3 3.2-1.3 12.5 0 9.2 0.4 12.7 1.3 13 0.7 0.2 4.4 1.3 8.2 2.4 3.9 1.1 9 3.5 11.5 5.3 2.6 1.9 5.5 5.3 6.8 7.9 1.6 3.2 2.2 6.2 2.2 10.7 0 3.4-0.7 7.9-1.5 10-0.9 2.1-3.2 5.5-5.3 7.6-2 2.1-5.4 4.7-7.4 5.7-2.1 1.1-6.4 2.5-15.3 4.6l-0.5 11.3h-9l-0.5-10.4-6-1.7c-3.3-0.8-7.8-2.5-10-3.6-2.2-1.1-5.5-3.7-7.4-5.9-1.9-2.1-4.2-5.8-5.2-8.1-1-2.3-1.9-4.8-1.9-5.5 0-0.8 2.1-1.6 5.3-2 2.9-0.4 6.8-0.8 8.7-0.8 3 0 3.8 0.4 5 3.2 0.9 1.7 3.2 4.7 5.3 6.5 2 1.8 4.3 3.2 5 3 0.9-0.2 1.2-3.7 1.2-13.1 0-10.4-0.3-13-1.5-13.7-0.8-0.5-4.2-1.8-7.5-3.1-3.3-1.2-7.7-3.5-9.9-5.2-2.2-1.7-5-5.1-6.3-7.6-1.8-3.3-2.4-6.1-2.5-11 0-4.7 0.5-7.6 2.1-10.7 1.2-2.3 3.6-5.3 5.4-6.6 1.8-1.4 4.8-3.2 6.7-4.2 2-1 5.8-2.3 8.5-2.9 4.4-1 5.1-1.4 5.3-3.8 0.3-2.5 0.7-2.8 4.8-2.8zm-14.5 29.9c0 2.2 0.8 4 2.9 6.1 1.7 1.7 3.5 3 4 3 0.6 0 1-3.8 1-9.5 0-5.2-0.2-9.5-0.6-9.5-0.3 0-2.1 1.6-3.9 3.4q-3.3 3.4-3.4 6.5zm19.9 54.1c4.3-0.8 6.8-2.4 8.3-4 2-2.1 2.7-4 2.7-6.7 0-2.1-0.7-4.9-1.7-6.2-1-1.3-3.2-3-5-3.7-1.8-0.8-3.5-1.4-3.8-1.4-0.2 0-0.5 5-0.5 11z"/><path class="c" d="m340.9 988.3c-0.7 1.9-1 5-0.6 7.7 0.4 2.8 1.7 5.8 3.5 8 1.6 1.9 4.4 4.3 6.3 5.2 1.9 1 5.4 1.8 7.9 1.8 2.9 0 5.9-0.9 8.5-2.4 2.2-1.3 4.9-4 6-5.9l2-3.6c-3.9-4-5.9-5.4-7-5.7-1.1-0.4-4-1.9-6.5-3.4-2.5-1.5-6.9-3.3-9.7-3.9-2.9-0.6-6.2-1.1-7.2-1.1-1.2 0-2.4 1.2-3.2 3.3z"/><path class="e" d="m611 434.5c0 8.5 0.3 15.7 0.8 15.9 0.4 0.2 0.7-6.7 0.7-15.5 0-8.7-0.3-15.9-0.8-15.9-0.4 0-0.7 7-0.7 15.5zm0.3 89.9c-0.3 0.7-0.4 3.8-0.1 6.7l0.4 5.4c0.3-10.2 0.9-12.7 1.6-12.9 1-0.4 1-0.5 0-0.5-0.7-0.1-1.5 0.5-1.9 1.3zm89.7 108.1c0 8.5 0.3 15.7 0.7 15.9 0.5 0.2 0.8-6.7 0.8-15.5 0-8.7-0.3-15.9-0.8-15.9-0.4 0-0.7 7-0.7 15.5zm0.3 89.9c-0.3 0.7-0.4 3.8-0.1 6.7l0.4 5.4c0.3-10.2 0.9-12.7 1.6-12.9 1-0.4 1-0.5 0-0.5-0.7-0.1-1.5 0.5-1.9 1.3zm-350.8 255.2c-1.6 0.8-4 2.5-5.3 3.7-1.2 1.2-2.2 2.4-2.2 2.7 0 0.3 3 1.1 6.7 1.8 4.2 0.8 8.6 2.4 11.3 4.2 2.5 1.7 5.1 3 5.8 3 0.6 0 2.7 1.3 4.5 2.9l3.2 3c1.1-4.2 1-7 0.4-8.9-0.5-1.9-1.8-4.9-2.8-6.5-1-1.6-3.8-4-6.2-5.2-2.4-1.3-6.2-2.3-8.4-2.3-2.2 0-5.4 0.7-7 1.6zm327.6 55.9c-1.5 1.1-2.3 2.5-2.2 4.1 0 1.3 0.8 3.1 1.6 3.9 0.8 0.8 2.1 1.6 2.7 1.6 0.7 0.1 2 0 2.8-0.1 0.8-0.1 2-1 2.7-1.9 0.7-0.9 1.3-2.6 1.3-3.8 0-1.3-1-3-2.3-3.8-1.2-0.8-2.7-1.5-3.2-1.5-0.5 0-2.1 0.7-3.4 1.5z"/><path class="f" d="m546.4 730.5c0 6 0.1 8.3 0.3 5 0.2-3.3 0.2-8.3 0-11-0.2-2.8-0.3 0-0.3 6zm286.1 183.1c-3.3 0.8-8.7 2.9-11.9 4.7-3.2 1.8-8.1 5.7-10.9 8.7-2.7 3-5.6 6.7-6.3 8.3l-1.4 2.7c5-1.5 11.9-1.9 18.5-1.9 8.3 0.1 15.7-0.6 24-2.1 6.6-1.2 15.6-3.3 20-4.7 4.4-1.4 9.1-2.3 10.5-2 2.1 0.4 1.8-0.1-2-3.4-2.5-2.1-6.5-5-9-6.4-2.5-1.3-7.6-3.1-11.5-3.9-3.9-0.9-8.6-1.5-10.5-1.5-1.9 0-6.2 0.7-9.5 1.5z"/><path class="j" d="m535 770.7c-0.3 6.7-0.2 11.9 0.3 11.5 0.4-0.4 0.6-5.9 0.5-12.2l-0.3-11.5zm-60.7 197.4c0.3 5.9 0.9 8.5 3.3 12.8 1.6 3 4.7 6.9 6.9 8.8 2.2 1.8 6 4.3 8.5 5.5 3.5 1.7 6.3 2.2 12.5 2.3 6.6 0 8.9-0.5 13.5-2.7 3.3-1.6 7.4-4.7 10.3-8 2.6-2.9 5.4-7.1 6.1-9.3l1.3-4c-12.5-2.7-18.7-4.2-21.7-5-3-0.8-10.9-2.6-17.5-3.9-6.6-1.4-14.6-2.8-17.8-3.2l-5.7-0.7zm380.7-2.4c-2 0.2-10.3 1-18.5 1.9-8.3 0.9-17.5 2.2-20.5 2.9-3.1 0.8-7.6 1.7-10.1 2-2.5 0.4-4.7 1.2-4.8 1.8-0.1 0.7 1.5 3.9 3.7 7.2 2.1 3.3 5.8 7.8 8.2 9.9 2.5 2.1 7.2 5.1 10.5 6.7 3.3 1.6 8.7 3.4 12 4 3.3 0.6 8.4 0.8 11.5 0.4 3-0.4 7.7-1.4 10.5-2.4 2.7-0.9 7-3.1 9.5-4.8 2.4-1.7 6.4-5 8.8-7.4 2.3-2.4 5.6-7.1 7.2-10.4 1.6-3.3 3.3-7.5 3.7-9.3l0.8-3.2c-22.5 0.3-30.6 0.5-32.5 0.7z"/><path class="k" d="m863 929.6c-4.1 1.4-12.9 3.4-19.5 4.5-7.5 1.3-17.1 2.2-25.6 2.3-8.4 0-14.1 0.5-15 1.2-0.8 0.6-2.3 3.8-3.3 7-1.1 3.3-1.9 8.8-1.9 12.4-0.1 3.6 0.5 8.7 1.2 11.5l1.2 5c7.3-1.2 12.3-2.2 15.9-3 3.6-0.8 13-2.2 21-3.1 8-0.9 22.6-1.9 32.5-2.3l18-0.6c-0.2-14.8-0.8-18.6-2.6-23-1.3-3.3-3.7-7.8-5.4-10-2.2-2.9-3.9-4-6-4.2-1.7-0.1-6.4 1-10.5 2.3zm-368.5 6.4c-2.7 1-7.2 3.8-9.9 6.2-3.2 2.8-6 6.5-7.8 10.3-1.5 3.3-2.8 6.5-2.8 7 0 0.5 3.9 1.6 8.7 2.3 4.9 0.7 14.9 2.7 22.3 4.3 7.4 1.7 13.7 3.2 14 3.4 0.3 0.2 4.2 1.2 8.7 2.2 4.5 1 8.6 1.4 9 1 0.4-0.5 0.8-3.9 0.7-7.5 0-4.6-0.7-8.3-2.2-11.7-1.2-2.9-4.4-7.2-7.4-10.1-3.4-3.3-7.3-5.8-11-7.2-3.6-1.4-8-2.2-11.5-2.1-3.2 0-8 0.9-10.8 1.9z"/><path fill-rule="evenodd" class="i" d="m680.4 220c0.6 0 0.5 0.4-0.2 0.8-0.9 0.5-1.2 3.9-1 13.4 0.2 6.9 0 12.4-0.4 12.2-0.5-0.2-0.9-6-1-12.7-0.1-6.8 0.2-12.7 0.7-13 0.5-0.4 1.3-0.7 1.9-0.7zm-14.4 41.3c1.2 0.3 1.5 2.8 1.6 29.2l-0.3-14c-0.3-9.5-0.8-14.3-1.6-14.8q-1.3-0.9 0.3-0.4zm13.2 43.7c0.2 0 0.1 3-0.7 13.5l-0.4-5.4c-0.2-2.9-0.1-6 0.2-6.7 0.4-0.8 0.8-1.4 0.9-1.4zm-75.2 87.3c4.1 0 5.7 0.2 3.5 0.4-2.2 0.2-5.6 0.2-7.5 0-1.9-0.2-0.1-0.4 4-0.4zm90 198c4.1 0 5.7 0.2 3.5 0.4-2.2 0.2-5.6 0.2-7.5 0-1.9-0.2-0.1-0.4 4-0.4z"/><path class="o" d="m597 486.8l0.5 17.7c0.4-26.4 0.2-34.3-0.2-34.7-0.5-0.4-0.6 7.3-0.3 17zm0 44l0.5 7.7 14 0.2-13.5-0.7c0.2-10.8-0.2-14.1-0.6-14.3-0.5-0.3-0.7 2.9-0.4 7.1zm90 154l0.5 17.7c0.4-26.4 0.2-34.3-0.2-34.7-0.5-0.4-0.6 7.3-0.3 17zm0 44l0.5 7.7 14 0.2-13.5-0.7c0.2-10.8-0.2-14.1-0.6-14.3-0.5-0.3-0.7 2.9-0.4 7.1zm-150.8 41.4c-0.1 9.2-0.6 12.9-1.4 13.2-1 0.4-1 0.5 0 0.5 0.6 0.1 1.4-0.5 1.7-1.2 0.3-0.6 0.4-6.6 0.2-13.2l-0.3-12zm0.2 33.8l0.1 5.5 8 0.1-7.5-0.6-0.7-10.5z"/><path class="c" d="m611.3 481.5c0 3.9 0.2 5.2 0.4 3 0.2-2.2 0.2-5.4 0-7-0.2-1.6-0.4 0.1-0.4 4zm90 198c0 3.9 0.2 5.2 0.4 3 0.2-2.2 0.2-5.4 0-7-0.2-1.6-0.4 0.1-0.4 4z"/><path class="d" d="m596.4 437c0 5.2 0.1 7.3 0.3 4.5 0.2-2.8 0.2-7 0-9.5-0.2-2.5-0.3-0.2-0.3 5zm90 198c0 5.2 0.1 7.3 0.3 4.5 0.2-2.8 0.2-7 0-9.5-0.2-2.5-0.3-0.2-0.3 5z"/><path class="e" d="m611.4 496.5c0 4.9 0.1 7.2 0.3 5 0.2-2.2 0.2-6.3 0-9-0.2-2.8-0.3-0.9-0.3 4zm90 198c0 5 0.1 7.2 0.3 5 0.2-2.2 0.2-6.3 0-9-0.2-2.8-0.3-1-0.3 4z"/><path class="f" d="m546.4 772.5c0 6 0.1 8.3 0.3 5 0.2-3.3 0.2-8.3 0-11-0.2-2.8-0.3 0-0.3 6z"/><path class="i" d="m667.4 231.5c0 6.6 0.1 9.1 0.3 5.5 0.2-3.6 0.2-9 0-12-0.2-3-0.3-0.1-0.3 6.5zm11 46.5c0 7.4 0.1 10.4 0.3 6.5 0.2-3.9 0.2-9.9 0-13.5-0.2-3.6-0.3-0.4-0.3 7z"/><path class="o" d="m597.4 432.5c0 7.7 0.2 10.6 0.3 6.5 0.2-4.1 0.2-10.4 0-14-0.2-3.6-0.3-0.2-0.3 7.5zm90 198c0 7.7 0.2 10.6 0.3 6.5 0.2-4.1 0.2-10.4 0-14-0.2-3.6-0.3-0.2-0.3 7.5zm-151.4 98.7c-0.3 5.9-0.2 10.4 0.3 10 0.4-0.4 0.6-5.2 0.5-10.7l-0.3-10z"/></svg>